<?xml version="1.0" encoding="UTF-8"?>
<svg width="429px" height="45px" viewBox="0 0 429 45" version="1.1" xmlns="http://www.w3.org/2000/svg" xmlns:xlink="http://www.w3.org/1999/xlink">
    <!-- Generator: Sketch 53.1 (72631) - https://sketchapp.com -->
    <title>Group 6</title>
    <desc>Created with Sketch.</desc>
    <g id="Page-1" stroke="none" stroke-width="1" fill="none" fill-rule="evenodd">
        <g id="Group-6" transform="translate(0.500000, 0.000000)">
            <rect id="Rectangle" fill="#D21D28" x="-1.13686838e-13" y="0" width="428.28" height="45"></rect>
            <path d="M10,11.048 L17.84,11.048 C20.0373443,11.048 21.7333274,11.6559939 22.928,12.872 C24.1226726,14.0880061 24.72,15.6773235 24.72,17.64 C24.72,19.0053402 24.4320029,20.2053282 23.856,21.24 C23.2799971,22.2746718 22.4746718,23.0746638 21.44,23.64 C20.4053282,24.2053362 19.2053402,24.488 17.84,24.488 L14.096,24.488 L14.096,33 L10,33 L10,11.048 Z M17.424,20.872 C18.4053382,20.872 19.162664,20.5893362 19.696,20.024 C20.229336,19.4586638 20.496,18.6640051 20.496,17.64 C20.496,16.7439955 20.2240027,16.029336 19.68,15.496 C19.1359973,14.962664 18.3840048,14.696 17.424,14.696 L14.096,14.696 L14.096,20.872 L17.424,20.872 Z M32.092,33.384 C29.8946557,33.384 28.2466722,32.6640072 27.148,31.224 C26.0493278,29.7839928 25.5,27.5706816 25.5,24.584 C25.5,18.717304 27.6546451,15.784 31.964,15.784 C34.0120102,15.784 35.5373283,16.4986595 36.54,17.928 C37.5426717,19.3573405 38.044,21.575985 38.044,24.584 L38.044,25.544 L29.5,25.544 C29.5213334,27.1226746 29.7293314,28.3013294 30.124,29.08 C30.5186686,29.8586706 31.1746621,30.248 32.092,30.248 C32.7533366,30.248 33.2759981,29.9653362 33.66,29.4 C34.0440019,28.8346638 34.236,28.0506717 34.236,27.048 L38.044,27.048 C38.044,29.1386771 37.5000054,30.717328 36.412,31.784 C35.3239946,32.850672 33.884009,33.384 32.092,33.384 Z M34.012,22.76 C34.012,20.1999872 33.3293402,18.92 31.964,18.92 C31.1746627,18.92 30.5880019,19.2453301 30.204,19.896 C29.8199981,20.5466699 29.5960003,21.501327 29.532,22.76 L34.012,22.76 Z M40.556,16.168 L43.756,16.168 L44.204,18.632 L44.396,18.632 C44.6733347,17.7786624 45.0359978,17.0906693 45.484,16.568 C45.9320022,16.0453307 46.5399962,15.784 47.308,15.784 C47.7133354,15.784 48.0653318,15.821333 48.364,15.896 C48.6626682,15.970667 48.8439997,16.0186666 48.908,16.04 L48.908,19.752 L47.532,19.752 C46.5933286,19.752 45.8360029,20.0506637 45.26,20.648 C44.6839971,21.2453363 44.396,22.2373264 44.396,23.624 L44.396,33 L40.556,33 L40.556,16.168 Z M50.864,16.168 L54.064,16.168 L54.512,18.632 L54.704,18.632 C54.9813347,17.7786624 55.3439978,17.0906693 55.792,16.568 C56.2400022,16.0453307 56.8479962,15.784 57.616,15.784 C58.0213354,15.784 58.3733318,15.821333 58.672,15.896 C58.9706682,15.970667 59.1519997,16.0186666 59.216,16.04 L59.216,19.752 L57.84,19.752 C56.9013286,19.752 56.1440029,20.0506637 55.568,20.648 C54.9919971,21.2453363 54.704,22.2373264 54.704,23.624 L54.704,33 L50.864,33 L50.864,16.168 Z M64.276,38.824 C63.6146634,38.824 63.0333358,38.786667 62.532,38.712 C62.0306642,38.637333 61.78,38.5786669 61.78,38.536 L61.78,35.592 L63.508,35.592 C64.0840029,35.592 64.6066643,35.3786688 65.076,34.952 C65.5453357,34.5253312 65.8866656,33.874671 66.1,33 L60.5,16.168 L64.564,16.168 L67.092,24.072 C67.2626675,24.605336 67.443999,25.3839949 67.636,26.408 C67.828001,27.4320051 67.9453331,28.114665 67.988,28.456 L68.116,28.456 C68.1586669,28.1359984 68.2653325,27.480005 68.436,26.488 C68.6066675,25.495995 68.7666659,24.7013363 68.916,24.104 L70.996,16.168 L74.836,16.168 L70.228,32.136 C69.6306637,34.2053437 68.8626714,35.8373274 67.924,37.032 C66.9853286,38.2266726 65.7693408,38.824 64.276,38.824 Z M83.42,11.048 L92.604,11.048 C94.7586774,11.048 96.4173275,11.6239942 97.58,12.776 C98.7426725,13.9280058 99.324,15.4426573 99.324,17.32 C99.324,18.6426733 98.9986699,19.7946618 98.348,20.776 C97.6973301,21.7573382 96.7960058,22.4826643 95.644,22.952 L99.868,33 L95.42,33 L91.772,23.848 L87.516,23.848 L87.516,33 L83.42,33 L83.42,11.048 Z M92.028,20.232 C92.9880048,20.232 93.7079976,19.9813358 94.188,19.48 C94.6680024,18.9786642 94.908,18.2586714 94.908,17.32 C94.908,16.4879958 94.6840022,15.842669 94.236,15.384 C93.7879978,14.925331 93.1053379,14.696 92.188,14.696 L87.516,14.696 L87.516,20.232 L92.028,20.232 Z M102.304,9.864 L106.144,9.864 L106.144,17.96 L106.272,17.96 C106.698669,17.3413302 107.25333,16.8240021 107.936,16.408 C108.61867,15.9919979 109.418662,15.784 110.336,15.784 C111.722674,15.784 112.815996,16.2159957 113.616,17.08 C114.416004,17.9440043 114.816,19.3146573 114.816,21.192 L114.816,33 L110.976,33 L110.976,22.248 C110.976,21.2026614 110.789335,20.4453357 110.416,19.976 C110.042665,19.5066643 109.493337,19.272 108.768,19.272 C108.02133,19.272 107.397336,19.5973301 106.896,20.248 C106.394664,20.8986699 106.144,21.6933286 106.144,22.632 L106.144,33 L102.304,33 L102.304,9.864 Z M123.708,33.384 C121.446655,33.384 119.761339,32.6693405 118.652,31.24 C117.542661,29.8106595 116.988,27.592015 116.988,24.584 C116.988,21.575985 117.542661,19.3573405 118.652,17.928 C119.761339,16.4986595 121.446655,15.784 123.708,15.784 C125.969345,15.784 127.654661,16.4986595 128.764,17.928 C129.873339,19.3573405 130.428,21.575985 130.428,24.584 C130.428,27.592015 129.873339,29.8106595 128.764,31.24 C127.654661,32.6693405 125.969345,33.384 123.708,33.384 Z M123.708,30.152 C124.668005,30.152 125.361331,29.7413374 125.788,28.92 C126.214669,28.0986626 126.428,26.8560083 126.428,25.192 L126.428,23.976 C126.428,22.3119917 126.214669,21.0693374 125.788,20.248 C125.361331,19.4266626 124.668005,19.016 123.708,19.016 C122.747995,19.016 122.054669,19.4266626 121.628,20.248 C121.201331,21.0693374 120.988,22.3119917 120.988,23.976 L120.988,25.192 C120.988,26.8560083 121.201331,28.0986626 121.628,28.92 C122.054669,29.7413374 122.747995,30.152 123.708,30.152 Z M137.408,33.384 C135.701325,33.384 134.373338,32.6533406 133.424,31.192 C132.474662,29.7306594 132,27.5173482 132,24.552 C132,21.6293187 132.474662,19.4373406 133.424,17.976 C134.373338,16.5146594 135.637325,15.784 137.216,15.784 C138.069338,15.784 138.831997,15.9706648 139.504,16.344 C140.176003,16.7173352 140.661332,17.2346634 140.96,17.896 L141.12,17.896 L141.12,9.864 L144.96,9.864 L144.96,33 L141.76,33 L141.376,30.92 L141.216,30.92 C140.810665,31.7306707 140.277337,32.3439979 139.616,32.76 C138.954663,33.1760021 138.218671,33.384 137.408,33.384 Z M138.56,29.896 C139.456004,29.896 140.106665,29.5066706 140.512,28.728 C140.917335,27.9493294 141.12,26.7706746 141.12,25.192 L141.12,24.04 C141.12,22.4613254 140.917335,21.272004 140.512,20.472 C140.106665,19.671996 139.456004,19.272 138.56,19.272 C137.663996,19.272 137.013335,19.6613294 136.608,20.44 C136.202665,21.2186706 136,22.3973254 136,23.976 L136,25.192 C136,26.7706746 136.202665,27.9493294 136.608,28.728 C137.013335,29.5066706 137.663996,29.896 138.56,29.896 Z M151.224,33.384 C150.178661,33.384 149.213338,33.0266702 148.328,32.312 C147.442662,31.5973298 147,30.3760086 147,28.648 C147,26.514656 147.725326,25.0000045 149.176,24.104 C150.626674,23.2079955 152.68532,22.76 155.352,22.76 L155.352,21 C155.352,20.3386634 155.229335,19.8266685 154.984,19.464 C154.738665,19.1013315 154.27467,18.92 153.592,18.92 C152.887996,18.92 152.376002,19.0959982 152.056,19.448 C151.735998,19.8000018 151.576,20.2106643 151.576,20.68 L151.576,21.16 L147.832,21.16 C147.810667,21.0319994 147.8,20.797335 147.8,20.456 C147.8,19.047993 148.317328,17.9173376 149.352,17.064 C150.386672,16.2106624 151.767991,15.784 153.496,15.784 C155.41601,15.784 156.850662,16.2106624 157.8,17.064 C158.749338,17.9173376 159.224,19.143992 159.224,20.744 L159.224,29.032 C159.224,29.4160019 159.309332,29.6986658 159.48,29.88 C159.650668,30.0613342 159.863999,30.152 160.12,30.152 L160.888,30.152 L160.888,32.872 C160.247997,33.213335 159.490671,33.384 158.616,33.384 C157.86933,33.384 157.234669,33.1866686 156.712,32.792 C156.189331,32.3973314 155.832001,31.8586701 155.64,31.176 L155.48,31.176 C154.946664,31.9226704 154.365336,32.4773315 153.736,32.84 C153.106664,33.2026685 152.269339,33.384 151.224,33.384 Z M152.824,30.184 C153.677338,30.184 154.311998,29.8426701 154.728,29.16 C155.144002,28.4773299 155.352,27.5920054 155.352,26.504 L155.352,25.544 C154.05066,25.544 152.989337,25.7519979 152.168,26.168 C151.346663,26.5840021 150.936,27.2933283 150.936,28.296 C150.936,28.8933363 151.090665,29.3573317 151.4,29.688 C151.709335,30.0186683 152.183997,30.184 152.824,30.184 Z M162.5,16.168 L165.7,16.168 L166.084,18.248 L166.276,18.248 C166.766669,17.522663 167.363996,16.930669 168.068,16.472 C168.772004,16.013331 169.593329,15.784 170.532,15.784 C171.918674,15.784 173.011996,16.2159957 173.812,17.08 C174.612004,17.9440043 175.012,19.3146573 175.012,21.192 L175.012,33 L171.172,33 L171.172,22.248 C171.172,21.2026614 170.985335,20.4453357 170.612,19.976 C170.238665,19.5066643 169.689337,19.272 168.964,19.272 C168.21733,19.272 167.593336,19.5973301 167.092,20.248 C166.590664,20.8986699 166.34,21.6933286 166.34,22.632 L166.34,33 L162.5,33 L162.5,16.168 Z M187.988584,24.864 C187.30365,24.864 186.717658,24.6173657 186.230594,24.1240897 C185.743529,23.6308137 185.5,23.0403861 185.5,22.3527892 C185.5,21.6651924 185.743529,21.0785017 186.230594,20.5926996 C186.717658,20.1068974 187.30365,19.864 187.988584,19.864 C188.68874,19.864 189.282342,20.1068974 189.769406,20.5926996 C190.256471,21.0785017 190.5,21.6651924 190.5,22.3527892 C190.5,23.0403861 190.256471,23.6308137 189.769406,24.1240897 C189.282342,24.6173657 188.68874,24.864 187.988584,24.864 Z M202.68,11.048 L216.216,11.048 L216.216,13.608 L205.496,13.608 L205.496,20.488 L214.808,20.488 L214.808,23.048 L205.496,23.048 L205.496,30.44 L216.408,30.44 L216.408,33 L202.68,33 L202.68,11.048 Z M219.5,16.168 L221.484,16.168 L221.836,18.12 L222.028,18.12 C222.902671,16.5626589 224.257324,15.784 226.092,15.784 C227.436007,15.784 228.46533,16.183996 229.18,16.984 C229.89467,17.784004 230.252,19.079991 230.252,20.872 L230.252,33 L227.628,33 L227.628,21.064 C227.628,19.9759946 227.425335,19.2133355 227.02,18.776 C226.614665,18.3386645 226.028004,18.12 225.26,18.12 C224.385329,18.12 223.644003,18.5359958 223.036,19.368 C222.427997,20.2000042 222.124,21.319993 222.124,22.728 L222.124,33 L219.5,33 L219.5,16.168 Z M236.912,38.824 C235.589327,38.824 234.565337,38.4453371 233.84,37.688 C233.114663,36.9306629 232.752,35.9760058 232.752,34.824 C232.752,33.9919958 232.949331,33.2506699 233.344,32.6 C233.738669,31.9493301 234.266663,31.4960013 234.928,31.24 C234.501331,30.9626653 234.165335,30.6000022 233.92,30.152 C233.674665,29.7039978 233.552,29.2240026 233.552,28.712 C233.552,28.0506634 233.765331,27.4640026 234.192,26.952 C234.618669,26.4399974 235.194663,26.0560013 235.92,25.8 C234.61866,24.733328 233.968,23.2826758 233.968,21.448 C233.968,19.6773245 234.458662,18.2906717 235.44,17.288 C236.421338,16.2853283 237.765325,15.784 239.472,15.784 C240.346671,15.784 241.15733,15.9866646 241.904,16.392 C242.58667,16.0293315 243.082665,15.6026691 243.392,15.112 C243.701335,14.6213309 243.898666,14.0666698 243.984,13.448 L246.288,13.448 C246.288,14.4720051 246.037336,15.346663 245.536,16.072 C245.034664,16.797337 244.346671,17.2666656 243.472,17.48 C244.474672,18.5253386 244.976,19.847992 244.976,21.448 C244.976,23.1760086 244.490672,24.5466616 243.52,25.56 C242.549328,26.5733384 241.242675,27.0906666 239.6,27.112 L237.84,27.112 C237.413331,27.112 237.050668,27.2559986 236.752,27.544 C236.453332,27.8320014 236.304,28.1893312 236.304,28.616 C236.304,29.0213354 236.453332,29.3733318 236.752,29.672 C237.050668,29.9706682 237.413331,30.12 237.84,30.12 L242.64,30.12 C243.834673,30.12 244.794663,30.4986629 245.52,31.256 C246.245337,32.0133371 246.608,32.9466611 246.608,34.056 C246.608,35.4426736 246.176004,36.5839955 245.312,37.48 C244.447996,38.3760045 243.237341,38.824 241.68,38.824 L236.912,38.824 Z M239.44,24.936 C240.357338,24.936 241.066664,24.6266698 241.568,24.008 C242.069336,23.3893302 242.32,22.5360054 242.32,21.448 C242.32,20.3173277 242.069336,19.4533363 241.568,18.856 C241.066664,18.2586637 240.357338,17.96 239.44,17.96 C238.522662,17.96 237.818669,18.2693302 237.328,18.888 C236.837331,19.5066698 236.592,20.3599946 236.592,21.448 C236.592,22.5786723 236.837331,23.4426637 237.328,24.04 C237.818669,24.6373363 238.522662,24.936 239.44,24.936 Z M241.968,36.552 C242.522669,36.552 242.991998,36.3600019 243.376,35.976 C243.760002,35.5919981 243.952,35.1226694 243.952,34.568 C243.952,33.9919971 243.781335,33.5226685 243.44,33.16 C243.098665,32.7973315 242.608003,32.616 241.968,32.616 L237.328,32.616 C236.687997,32.616 236.202668,32.7973315 235.872,33.16 C235.541332,33.5226685 235.376,33.9919971 235.376,34.568 C235.376,35.1440029 235.546665,35.6186648 235.888,35.992 C236.229335,36.3653352 236.70933,36.552 237.328,36.552 L241.968,36.552 Z M248.928,9.864 L251.552,9.864 L251.552,33 L248.928,33 L248.928,9.864 Z M255.152,9.864 L257.776,9.864 L257.776,13 L255.152,13 L255.152,9.864 Z M255.152,16.168 L257.776,16.168 L257.776,33 L255.152,33 L255.152,16.168 Z M266.24,33.384 C264.426658,33.384 263.072004,32.9093381 262.176,31.96 C261.279996,31.0106619 260.832,29.8426736 260.832,28.456 C260.832,28.1999987 260.837333,28.0240005 260.848,27.928 C260.858667,27.8319995 260.864,27.7733334 260.864,27.752 L263.616,27.752 L263.616,28.072 C263.616,29.0746717 263.871997,29.8266642 264.384,30.328 C264.896003,30.8293358 265.557329,31.08 266.368,31.08 C267.093337,31.08 267.695998,30.8613355 268.176,30.424 C268.656002,29.9866645 268.896,29.3733373 268.896,28.584 C268.896,27.9866637 268.746668,27.4960019 268.448,27.112 C268.149332,26.7279981 267.786669,26.4240011 267.36,26.2 C266.933331,25.9759989 266.336004,25.7253347 265.568,25.448 C264.629329,25.1279984 263.872003,24.8080016 263.296,24.488 C262.719997,24.1679984 262.229335,23.6933365 261.824,23.064 C261.418665,22.4346635 261.216,21.6080051 261.216,20.584 C261.216,19.1119926 261.690662,17.9440043 262.64,17.08 C263.589338,16.2159957 264.863992,15.784 266.464,15.784 C267.978674,15.784 269.162662,16.2266622 270.016,17.112 C270.869338,17.9973378 271.296,19.0906602 271.296,20.392 L271.264,21 L268.544,21 L268.544,20.712 C268.544,19.9653296 268.362668,19.3413358 268,18.84 C267.637332,18.3386642 267.040004,18.088 266.208,18.088 C265.375996,18.088 264.789335,18.3226643 264.448,18.792 C264.106665,19.2613357 263.936,19.7946637 263.936,20.392 C263.936,21.117337 264.186664,21.6559982 264.688,22.008 C265.189336,22.3600018 265.962661,22.706665 267.008,23.048 C267.968005,23.389335 268.75733,23.7253317 269.376,24.056 C269.99467,24.3866683 270.522664,24.8826634 270.96,25.544 C271.397336,26.2053366 271.616,27.0906611 271.616,28.2 C271.616,29.9280086 271.130672,31.2239957 270.16,32.088 C269.189328,32.9520043 267.882675,33.384 266.24,33.384 Z M274,9.864 L276.624,9.864 L276.624,17.928 L276.816,17.928 C277.626671,16.4986595 278.885325,15.784 280.592,15.784 C281.936007,15.784 282.96533,16.183996 283.68,16.984 C284.39467,17.784004 284.752,19.079991 284.752,20.872 L284.752,33 L282.128,33 L282.128,21.064 C282.128,19.9759946 281.925335,19.2133355 281.52,18.776 C281.114665,18.3386645 280.528004,18.12 279.76,18.12 C278.885329,18.12 278.144003,18.5359958 277.536,19.368 C276.927997,20.2000042 276.624,21.319993 276.624,22.728 L276.624,33 L274,33 L274,9.864 Z M300.408,33.384 C298.594658,33.384 297.240004,32.9093381 296.344,31.96 C295.447996,31.0106619 295,29.8426736 295,28.456 C295,28.1999987 295.005333,28.0240005 295.016,27.928 C295.026667,27.8319995 295.032,27.7733334 295.032,27.752 L297.784,27.752 L297.784,28.072 C297.784,29.0746717 298.039997,29.8266642 298.552,30.328 C299.064003,30.8293358 299.725329,31.08 300.536,31.08 C301.261337,31.08 301.863998,30.8613355 302.344,30.424 C302.824002,29.9866645 303.064,29.3733373 303.064,28.584 C303.064,27.9866637 302.914668,27.4960019 302.616,27.112 C302.317332,26.7279981 301.954669,26.4240011 301.528,26.2 C301.101331,25.9759989 300.504004,25.7253347 299.736,25.448 C298.797329,25.1279984 298.040003,24.8080016 297.464,24.488 C296.887997,24.1679984 296.397335,23.6933365 295.992,23.064 C295.586665,22.4346635 295.384,21.6080051 295.384,20.584 C295.384,19.1119926 295.858662,17.9440043 296.808,17.08 C297.757338,16.2159957 299.031992,15.784 300.632,15.784 C302.146674,15.784 303.330662,16.2266622 304.184,17.112 C305.037338,17.9973378 305.464,19.0906602 305.464,20.392 L305.432,21 L302.712,21 L302.712,20.712 C302.712,19.9653296 302.530668,19.3413358 302.168,18.84 C301.805332,18.3386642 301.208004,18.088 300.376,18.088 C299.543996,18.088 298.957335,18.3226643 298.616,18.792 C298.274665,19.2613357 298.104,19.7946637 298.104,20.392 C298.104,21.117337 298.354664,21.6559982 298.856,22.008 C299.357336,22.3600018 300.130661,22.706665 301.176,23.048 C302.136005,23.389335 302.92533,23.7253317 303.544,24.056 C304.16267,24.3866683 304.690664,24.8826634 305.128,25.544 C305.565336,26.2053366 305.784,27.0906611 305.784,28.2 C305.784,29.9280086 305.298672,31.2239957 304.328,32.088 C303.357328,32.9520043 302.050675,33.384 300.408,33.384 Z M312.584,33.384 C311.239993,33.384 310.21067,32.984004 309.496,32.184 C308.78133,31.383996 308.424,30.088009 308.424,28.296 L308.424,16.168 L311.048,16.168 L311.048,28.104 C311.048,29.1920054 311.250665,29.9546645 311.656,30.392 C312.061335,30.8293355 312.647996,31.048 313.416,31.048 C314.290671,31.048 315.031997,30.6320042 315.64,29.8 C316.248003,28.9679958 316.552,27.848007 316.552,26.44 L316.552,16.168 L319.176,16.168 L319.176,33 L317.192,33 L316.84,31.048 L316.648,31.048 C315.773329,32.6053411 314.418676,33.384 312.584,33.384 Z M322.416,16.168 L324.4,16.168 L324.752,18.12 L324.944,18.12 C325.776004,16.5626589 327.055991,15.784 328.784,15.784 C330.597342,15.784 331.791997,16.5946586 332.368,18.216 C332.794669,17.4266627 333.375996,16.8240021 334.112,16.408 C334.848004,15.9919979 335.631996,15.784 336.464,15.784 C339.109347,15.784 340.432,17.479983 340.432,20.872 L340.432,33 L337.808,33 L337.808,21.064 C337.808,19.9759946 337.616002,19.2133355 337.232,18.776 C336.847998,18.3386645 336.31467,18.12 335.632,18.12 C334.821329,18.12 334.138669,18.5359958 333.584,19.368 C333.029331,20.2000042 332.752,21.319993 332.752,22.728 L332.752,33 L330.128,33 L330.128,21.064 C330.128,19.9759946 329.936002,19.2133355 329.552,18.776 C329.167998,18.3386645 328.63467,18.12 327.952,18.12 C327.141329,18.12 326.453336,18.5359958 325.888,19.368 C325.322664,20.2000042 325.04,21.319993 325.04,22.728 L325.04,33 L322.416,33 L322.416,16.168 Z M343.672,16.168 L345.656,16.168 L346.008,18.12 L346.2,18.12 C347.032004,16.5626589 348.311991,15.784 350.04,15.784 C351.853342,15.784 353.047997,16.5946586 353.624,18.216 C354.050669,17.4266627 354.631996,16.8240021 355.368,16.408 C356.104004,15.9919979 356.887996,15.784 357.72,15.784 C360.365347,15.784 361.688,17.479983 361.688,20.872 L361.688,33 L359.064,33 L359.064,21.064 C359.064,19.9759946 358.872002,19.2133355 358.488,18.776 C358.103998,18.3386645 357.57067,18.12 356.888,18.12 C356.077329,18.12 355.394669,18.5359958 354.84,19.368 C354.285331,20.2000042 354.008,21.319993 354.008,22.728 L354.008,33 L351.384,33 L351.384,21.064 C351.384,19.9759946 351.192002,19.2133355 350.808,18.776 C350.423998,18.3386645 349.89067,18.12 349.208,18.12 C348.397329,18.12 347.709336,18.5359958 347.144,19.368 C346.578664,20.2000042 346.296,21.319993 346.296,22.728 L346.296,33 L343.672,33 L343.672,16.168 Z M368.916,33.384 C367.763994,33.384 366.740004,33.0426701 365.844,32.36 C364.947996,31.6773299 364.5,30.440009 364.5,28.648 C364.5,26.4933226 365.230659,25.016004 366.692,24.216 C368.153341,23.415996 370.259986,23.016 373.012,23.016 L373.012,20.84 C373.012,19.965329 372.820002,19.2933357 372.436,18.824 C372.051998,18.3546643 371.358672,18.12 370.356,18.12 C369.438662,18.12 368.777335,18.3759974 368.372,18.888 C367.966665,19.4000026 367.764,20.0293296 367.764,20.776 L367.764,21.16 L365.172,21.16 C365.150667,21.0319994 365.14,20.797335 365.14,20.456 C365.14,18.9626592 365.630662,17.8106707 366.612,17 C367.593338,16.1893293 368.905325,15.784 370.548,15.784 C372.233342,15.784 373.502662,16.1893293 374.356,17 C375.209338,17.8106707 375.636,18.9733258 375.636,20.488 L375.636,29.928 C375.636,30.2906685 375.721332,30.567999 375.892,30.76 C376.062668,30.952001 376.275999,31.048 376.532,31.048 L377.556,31.048 L377.556,32.872 C377.086664,33.1280013 376.51067,33.256 375.828,33.256 C375.14533,33.256 374.574669,33.0693352 374.116,32.696 C373.657331,32.3226648 373.342668,31.8160032 373.172,31.176 L373.012,31.176 C372.585331,31.8800035 372.01467,32.4239981 371.3,32.808 C370.58533,33.1920019 369.790671,33.384 368.916,33.384 Z M369.524,31.048 C370.100003,31.048 370.654664,30.8880016 371.188,30.568 C371.721336,30.2479984 372.158665,29.7733365 372.5,29.144 C372.841335,28.5146635 373.012,27.762671 373.012,26.888 L373.012,25.352 C371.09199,25.352 369.652005,25.5706645 368.692,26.008 C367.731995,26.4453355 367.252,27.2719939 367.252,28.488 C367.252,29.4053379 367.438665,30.0613314 367.812,30.456 C368.185335,30.8506686 368.755996,31.048 369.524,31.048 Z M379.92,16.168 L381.904,16.168 L382.256,18.376 L382.448,18.376 C382.682668,17.6293296 383.034664,17.0106691 383.504,16.52 C383.973336,16.0293309 384.570663,15.784 385.296,15.784 C385.594668,15.784 385.861332,15.821333 386.096,15.896 C386.330668,15.970667 386.48,16.0186666 386.544,16.04 L386.544,18.76 L385.68,18.76 C384.762662,18.76 384.01067,19.0746635 383.424,19.704 C382.83733,20.3333365 382.544,21.3413264 382.544,22.728 L382.544,33 L379.92,33 L379.92,16.168 Z M388.736,9.864 L391.36,9.864 L391.36,13 L388.736,13 L388.736,9.864 Z M388.736,16.168 L391.36,16.168 L391.36,33 L388.736,33 L388.736,16.168 Z M400.368,33.384 C398.234656,33.384 396.640005,32.6853403 395.584,31.288 C394.527995,29.8906597 394,27.6560154 394,24.584 C394,21.575985 394.522661,19.3573405 395.568,17.928 C396.613339,16.4986595 398.202656,15.784 400.336,15.784 C402.213343,15.784 403.605329,16.4079938 404.512,17.656 C405.418671,18.9040062 405.872,20.9146528 405.872,23.688 L405.872,25.352 L396.752,25.352 C396.773333,27.3146765 397.07733,28.7546621 397.664,29.672 C398.25067,30.5893379 399.173327,31.048 400.432,31.048 C401.285338,31.048 401.973331,30.7066701 402.496,30.024 C403.018669,29.3413299 403.28,28.4240058 403.28,27.272 L405.872,27.272 C405.872,29.1493427 405.365338,30.6373278 404.352,31.736 C403.338662,32.8346722 402.010675,33.384 400.368,33.384 Z M403.12,23.016 C403.12,21.415992 402.885336,20.2000042 402.416,19.368 C401.946664,18.5359958 401.253338,18.12 400.336,18.12 C399.205328,18.12 398.357336,18.519996 397.792,19.32 C397.226664,20.120004 396.890667,21.3519917 396.784,23.016 L403.12,23.016 Z M412.908,33.384 C411.094658,33.384 409.740004,32.9093381 408.844,31.96 C407.947996,31.0106619 407.5,29.8426736 407.5,28.456 C407.5,28.1999987 407.505333,28.0240005 407.516,27.928 C407.526667,27.8319995 407.532,27.7733334 407.532,27.752 L410.284,27.752 L410.284,28.072 C410.284,29.0746717 410.539997,29.8266642 411.052,30.328 C411.564003,30.8293358 412.225329,31.08 413.036,31.08 C413.761337,31.08 414.363998,30.8613355 414.844,30.424 C415.324002,29.9866645 415.564,29.3733373 415.564,28.584 C415.564,27.9866637 415.414668,27.4960019 415.116,27.112 C414.817332,26.7279981 414.454669,26.4240011 414.028,26.2 C413.601331,25.9759989 413.004004,25.7253347 412.236,25.448 C411.297329,25.1279984 410.540003,24.8080016 409.964,24.488 C409.387997,24.1679984 408.897335,23.6933365 408.492,23.064 C408.086665,22.4346635 407.884,21.6080051 407.884,20.584 C407.884,19.1119926 408.358662,17.9440043 409.308,17.08 C410.257338,16.2159957 411.531992,15.784 413.132,15.784 C414.646674,15.784 415.830662,16.2266622 416.684,17.112 C417.537338,17.9973378 417.964,19.0906602 417.964,20.392 L417.932,21 L415.212,21 L415.212,20.712 C415.212,19.9653296 415.030668,19.3413358 414.668,18.84 C414.305332,18.3386642 413.708004,18.088 412.876,18.088 C412.043996,18.088 411.457335,18.3226643 411.116,18.792 C410.774665,19.2613357 410.604,19.7946637 410.604,20.392 C410.604,21.117337 410.854664,21.6559982 411.356,22.008 C411.857336,22.3600018 412.630661,22.706665 413.676,23.048 C414.636005,23.389335 415.42533,23.7253317 416.044,24.056 C416.66267,24.3866683 417.190664,24.8826634 417.628,25.544 C418.065336,26.2053366 418.284,27.0906611 418.284,28.2 C418.284,29.9280086 417.798672,31.2239957 416.828,32.088 C415.857328,32.9520043 414.550675,33.384 412.908,33.384 Z" id="PerryRhodan•Englishsummaries" fill="#FAFAFA" fill-rule="nonzero"></path>
        </g>
    </g>
</svg>